# xmcd CD database file
#
# Track frame offsets:
#	150
#	12309
#	23564
#	37347
#	55931
#	67712
#	79164
#	89851
#	102909
#	114443
#	124477
#	136767
#	152375
#	165918
#	179861
#	193985
#	211209
#	227702
#	240327
#	259609
#	272138
#
# Disc length: 3788 seconds
#
# Revision: 0
# Processed by: cddbd v1.5.2PL0 Copyright (c) Steve Scherf et al.
# Submitted via: ACXtractor (MTCDDB.DLL V2003.12.21)
#
DISCID=1f0eca15
DTITLE=Ray Kernaghan - Midnight Lady
DYEAR=1997
DGENRE=Country
TTITLE0=Rocking along in an Old Rocking Chair
TTITLE1=Baby Were Really in Love
TTITLE2=Blue Velvet Band
TTITLE3=Today I Started Loving you Again
TTITLE4=No Truckin' Worries Sue (Sioux City Sue)
TTITLE5=Mona Lisa
TTITLE6=Blackboard of my Heart
TTITLE7=Room Full of Roses
TTITLE8=Col Cold Hands
TTITLE9=You've Had Your Share of Hell
TTITLE10=Midnight Lady
TTITLE11=The Convict and the Rose
TTITLE12=If those Lips Could only Speak
TTITLE13=Frauelein
TTITLE14=The Ballad of Jim Blinn
TTITLE15=Matilda, Queen of the 
TTITLE16=The Soldiers last Letter
TTITLE17=The Wild Side of Life
TTITLE18=Can I Sleep in your Barn Tonight
TTITLE19=Annie Johnstone
TTITLE20=Turn me On
EXTD=ID3G:   2 YEAR: 1997
EXTT0=
EXTT1=
EXTT2=
EXTT3=
EXTT4=
EXTT5=
EXTT6=
EXTT7=
EXTT8=
EXTT9=
EXTT10=
EXTT11=
EXTT12=
EXTT13=
EXTT14=
EXTT15=
EXTT16=
EXTT17=
EXTT18=
EXTT19=
EXTT20=
PLAYORDER=
